<svg id="Layer_1" xmlns="http://www.w3.org/2000/svg" viewBox="0 0 612 611.1"><style>.st0{fill:#429bcd}.st1{fill:#fff}</style><path class="st0" d="M469.4 611.1H142.6C64.4 611.1.5 547.1.5 469V142.1C.4 64 64.4 0 142.6 0h326.9c78.2 0 142.1 64 142.1 142.1V469c0 78.2-64 142.1-142.2 142.1z"/><path class="st1" d="M169.4 137.4c2.2-1.1 4.1-.5 6 1 3.4 2.6 7.1 4.9 10.4 7.6 1.1.9 1.5 2.6 2.2 3.9-1.5-.3-3.3-.2-4.4-1-4.8-3.3-9.5-6.8-14.2-10.2v-1.3zM304.8 554.2c-35.7 0-71.4-.2-107.1.1-9.7.1-18.3-6.5-19.8-15.9-1.5-9.7 4.2-18.4 14-21.7 5.8-2 11.5-4.2 17.3-6.2 2-.7 2.8-1.8 2.9-3.9.5-30.1 9.9-57.5 25.4-83.1 8.1-13.4 17.1-26.1 27.2-38.1 1.9-2.2 3.7-4.7 4.9-7.3.7-1.5.8-4-.1-5.2-4.1-5.6-8.3-11.2-13-16.3-13.4-14.2-22.5-31-29.7-48.9-7.4-18.2-11.3-37.3-13.3-56.8-.2-2.3-1.1-3.4-3.6-3.3-4.3.1-8.7.1-13 .1-10.6 0-19-8.1-19.2-18.3-.2-10.7 7.9-19.2 18.6-19.7 1.9-.1 3.8 0 5.7 0h209.7c12.3 0 20.6 8 20.5 19.6-.1 9.9-8.4 18.2-18.5 18.4-4.4.1-8.9.1-13.3-.1-2.7-.1-3.6 1-4 3.6-2.5 13.8-4.4 27.7-8 41.3-6.9 26.5-19.5 50.2-38.2 70.5-2.8 3-5.9 5.8-8.8 8.6-2.1 2-2.5 4.1-.7 6.5 4.9 6.3 9.9 12.6 14.8 18.9 13.3 17.3 24.2 36 31.7 56.6 6.3 17.1 9.8 34.7 10.4 52.9 0 1.3 1.6 3.2 3 3.8 6.8 2.8 13.9 5 20.7 7.9 8.3 3.6 12.7 12.8 10.7 21.1-2.1 8.9-9.5 14.8-18.8 14.8-36.2.1-72.3.1-108.4.1zm8.8-170.7c.6 2.8 1.6 5 1.6 7.2.2 21.6.1 43.3.4 64.9.1 5.2-4.2 9.6-10.5 9.9-5.9.2-10.8-4.3-10.8-9.7 0-12-.1-24.1.3-36.1.3-12-1.5-24.1 1.5-36.8-4.2 2.4-6.6-1.1-9.6-2.8-.9-.5-1.9-1-2.8-1.5-1.6-.9-2.5-.6-3.3 1.3-1.7 3.6-3.5 7.2-5.8 10.5-7.2 10.1-15 19.9-22 30.1-17.2 25-27.8 52.4-29.4 83-.2 3.9 1 5 4.8 4.1 1-.2 2-.7 2.9-1.2 14.4-8.3 30-11 46.4-9.5 4.2.4 8.6-.1 11.6-3.1 4.4-4.2 8.1-9 12.1-13.6.7-.9 1.4-1.8 2.4-3.1.5 1.2.8 1.7 1 2.3 2.8 8 7.7 14.2 16.4 16 4.3.9 8.8.9 13.2.9 12.4.1 24.7 1.3 36.5 5.2 4.2 1.4 8.1 3.5 12.1 5.4 3.3 1.5 4.6.7 4.3-2.9-.1-1.4-.2-2.7-.3-4.1-1.5-17.2-5.3-33.8-12.2-49.6-8.2-18.7-19.6-35.3-32.2-51.3-4.7-6-8.8-12.6-13-19-1-1.6-2-1.9-3.6-1-1.2.7-2.4 1.3-3.7 1.8-2.8 1-5.7 1.9-8.3 2.7zm-8.3-135.8h-77c-2.8 0-3.6.8-3.3 3.7 2.3 22.3 7.3 43.9 17.1 64.2 3.3 6.9 7.5 13.4 11.5 20 1.9 3.1 5.4 2.8 7.2-.4 1.2-2.1 2.8-3.2 5.3-3.4 12-1 24-2.1 36-2.9 1.6-.1 4.1.8 4.9 2 1.4 2.4 2.9 2.7 5.1 1.8.7-.2 1.5-.1 2.2-.2 8.2-.7 16.4-1.3 24.6-2.1 3.5-.4 5.5.6 6.1 4.1.4 2.1 1.5 2.9 3.4 3 1.8.1 3.7.4 5.4-.1 1.6-.4 3.6-1.2 4.4-2.4 7.3-11.2 12.7-23.3 17-35.9 5.1-15.3 8.3-31 10.1-47 .5-4.2.4-4.4-3.8-4.4h-76.2zM417.9 199.8c-12.2-23.6-30.2-41.2-51.8-55.8 6.7-2.7 28.3 5.8 36.8 13.9 9.5 8.9 18.3 32.6 15 41.9zM193.7 198.9c0-13 2.5-25.4 10.8-36.1 9.8-12.7 27.9-19.4 41-19.4-1.1 1.1-1.8 1.9-2.6 2.5-11.7 8.4-22.9 17.3-32.2 28.4-5.9 7-11.3 14.5-14.5 23.2-.3.7-1 1.3-1.5 1.9-.3-.2-.6-.4-1-.5zM307.4 81.5v13c0 1 0 2.2-.3 3.1-.2.7-1.1 1.1-1.6 1.6-.4-.6-1.1-1.1-1.2-1.7-.4-3.7-.7-7.3-.9-11-.3-8.3-.5-16.7-.5-25 0-1.6 1.1-3.1 1.6-4.7.7 1.5 1.8 2.9 1.9 4.4.2 6.7.1 13.5.1 20.2.3 0 .6 0 .9.1zM238.2 76.5c.8 1.9 1.9 3.8 2.5 5.8 2.3 7.5 4.5 15.1 6.7 22.7.2.8.5 1.7.4 2.5-.1.7-.7 1.3-1.1 2-.6-.4-1.4-.6-1.7-1.1-.8-1.7-1.5-3.5-2.1-5.3-2.2-7.3-4.3-14.5-6.3-21.8-.4-1.3-.1-2.9-.1-4.3.6-.2 1.1-.4 1.7-.5zM376.6 77c0 1.5.3 3-.1 4.4-2.2 7.8-4.4 15.6-6.9 23.3-.6 1.8-2.3 3.1-3.4 4.7-2.1-1.9-.7-3.9-.1-5.8 2.3-8 4.7-16 7.2-23.9.4-1.2 1.5-2.2 2.3-3.2.3.2.6.3 1 .5zM410.6 130.7c-.4-1.2-1-2.1-.8-2.7.5-1.1 1.3-2.2 2.2-3 5.7-5.5 11.4-11 17.3-16.3 1.1-1 2.8-1.2 4.3-1.7-.6 1.4-.8 3.2-1.7 4.2-5.9 5.9-12 11.6-18.1 17.3-.7.6-1.6 1.1-3.2 2.2zM203.3 129.6c-1-.1-2.4.2-3.1-.4-2.7-2.2-5.3-4.5-7.8-6.9-3.8-3.6-7.5-7.3-11.3-11-.6-.6-1.3-1.2-1.6-1.9-.3-.7-.1-1.5-.1-2.3.8.1 1.8-.2 2.3.2 1.9 1.4 3.6 2.9 5.3 4.5 4.8 4.6 9.6 9.2 14.3 13.8.9.9 1.5 2 2.2 3 0 .3-.1.6-.2 1zM441.1 136.5c.6.4 1.5.8 1.5 1-.2.9-.4 2.1-1.1 2.7-4.3 3.3-8.8 6.5-13.2 9.7-.3.2-.6.4-.8.4-.9-.1-1.7-.2-2.6-.3.2-.8.2-2 .8-2.4 2.6-2.1 5.3-4.1 8-6.1 1.7-1.2 3.4-2.4 5.2-3.6.6-.7 1.4-1 2.2-1.4zM337.8 80.4c-1 5.6-1.7 10.4-2.7 15.3-.2.8-1.3 1.4-1.9 2.1-.5-.9-1.7-1.8-1.6-2.6.6-4.9 1.4-9.7 2.4-14.6.2-.9 1.4-1.5 2.2-2.2.6.7 1.3 1.6 1.6 2zM275.4 80.5c.4-.5 1-1.4 1.7-2.3.7.9 1.8 1.7 2.1 2.7.9 4.4 1.7 8.9 2.3 13.4.1 1-.7 2.2-1.2 3.2-.9-.9-2.3-1.6-2.5-2.6-1-4.5-1.6-9.1-2.4-14.4zM221.8 113.2c-.6.8-.9 1.6-1.3 1.7-.7.1-1.9 0-2.2-.5-1.4-2.1-2.7-4.3-3.7-6.5-.3-.5.2-1.6.7-2.2.2-.3 1.4-.3 1.6 0 1.6 2.4 3.2 4.9 4.9 7.5zM389.2 115.3c-.3-1-1.1-2.2-.8-2.9 1-2.3 2.4-4.4 3.8-6.4.3-.4 1.5-.8 1.8-.6.6.4 1.3 1.5 1.1 1.9-1.3 2.6-2.8 5-4.3 7.5-.1.2-.6.2-1.6.5z"/></svg>