<svg id="Layer_1" xmlns="http://www.w3.org/2000/svg" viewBox="-207 372.7 196.8 48.3"><style>.st0{fill:#fff}</style><path class="st0" d="M-202.6 398.2c0-.2.1-.3.1-.5.1-2.6.7-5.1 1.7-7.5.9-2.1 2.1-4.1 3.6-5.8 2.4-2.8 5.3-4.8 8.8-6.2 1.4-.5 2.7-.9 4.2-1.1.7-.1 1.5-.2 2.2-.3.9-.1 1.8-.1 2.6 0 4.8.3 9.2 2 12.9 5.1 3.4 2.8 5.7 6.4 7 10.6.3 1.1.6 2.3.7 3.4.1 1.1.2 2.2.2 3.3 0 .5 0 1-.1 1.4v.1h-1.7c.4-5-.7-9.5-3.6-13.6-1.6-2.4-3.7-4.3-6.2-5.8-2.3-1.4-4.8-2.3-7.4-2.7-4.6-.7-8.9.1-13 2.4-3.9 2.2-6.8 5.4-8.6 9.5-3.6 8.1-1.6 17.7 5.1 23.6 3.6 3.2 7.9 4.9 12.7 5.1 4.8.2 9.1-1.2 13-4.1 0 .1.1 1.7 0 2-1.3.9-2.6 1.6-4 2.2h6.3v1.7H-195v-1.7h6.2c-.1 0-.1-.1-.2-.1-2.8-1.2-5.3-2.8-7.4-5-2.8-2.9-4.7-6.4-5.7-10.4-.3-1.1-.4-2.2-.5-3.2 0-.3 0-.7-.1-1v-.2c.1-.5.1-.8.1-1.2z"/><path class="st0" d="M-180.7 372.8c.6.5 1.3.8 2.1.9.8.1 1.6-.1 2.4-.4l.6-.3s.1-.1.2-.1c1.1.8 2.2 1.7 3.3 2.6-.3.5-.6 1-.8 1.6-5-1.6-9.9-1.7-14.9-.1-.4-.5-.8-.9-1.1-1.4 1.2-.9 2.3-1.7 3.5-2.6.3.2.6.4 1 .5 1.3.5 2.5.3 3.7-.5-.2-.1-.1-.2 0-.2zM-142.9 409.4c1.4-.4 1.1-.2 1.7-1.6 1-2.6 2-5.3 3.1-7.9.3-.8.7-1.5 1.1-2.2.1-.2.2-.3.4-.3.3 0 .3.2.4.3.4 1 .8 2.1 1.2 3.1 1 2.5 1.9 4.9 2.8 7.4.2.6.5 1 1.2 1.1.1 0 .1 0 .2.1l.1.1v.5h-4.4v-.5c.5-.1.9-.2 1.5-.3-.5-1.2-.9-2.4-1.4-3.6h-4.3c-.4 1.2-.8 2.3-1.3 3.5.5.1 1 .3 1.4.4v.6h-3.7v-.7zm7.5-4.9c-.6-1.5-1.2-3-1.7-4.5h-.1c-.6 1.5-1.1 2.9-1.7 4.5h3.5zM-14.6 388.7c-.5.3-1 .2-1.6.1-.2 0-.3-.2-.3-.4v-.5V374v-.1c0-.7.1-.8.8-.8.4 0 .8-.1 1.1.2v15.4zM-88.4 420.8c-.2-.1-.4-.2-.6-.2-.4-.1-.4-.2-.4-.6v-.6c.1.1.3.1.4.2.5.3 1 .4 1.6.4.2 0 .4 0 .5-.1.7-.2.8-1 .4-1.5-.2-.2-.5-.4-.7-.5-.4-.3-.9-.5-1.3-.7-.7-.5-.9-1.1-.7-1.9.1-.4.4-.8.8-1 .9-.5 1.9-.4 2.8-.1v1c-.6-.3-1.2-.4-1.9-.3-.6.1-.9.5-.9 1 0 .3.2.5.4.6.3.2.6.3.9.5.4.2.7.4 1 .6 1.1.8.9 2.5-.5 3-.2.1-.3.1-.5.2h-1.3zM-112.4 420.8c-.1-.1-.2-.1-.3-.2-.7-.3-1.1-.8-1.2-1.4-.1-.6-.2-1.3.1-1.9.4-1.1 1.5-1.7 2.6-1.4.6.2 1 .6 1.2 1.2.2.5.2.9.1 1.5h-3.1c0 1.4 1.1 1.9 2.8 1v.7c-.3.2-.6.3-1 .5h-1.2zm-.7-3h2.3c0-.8-.4-1.2-1-1.2-.6-.1-1.1.4-1.3 1.2zM-130 420.8c-.1-.1-.2-.1-.3-.2-.6-.3-.8-.8-.8-1.4 0-.6.4-1.1 1-1.3.4-.1.8-.2 1.2-.2.2 0 .4-.1.7-.1 0-.8-.4-1.2-1.1-1-.4.1-.8.3-1.1.4-.2-.6-.1-.8.5-1 .5-.2 1-.2 1.5-.1.6.1 1.1.5 1.2 1.2.1 1.2 0 2.4.1 3.6h-.8c0-.1-.1-.3-.1-.4-.3.2-.6.4-.8.6-.6-.1-.9-.1-1.2-.1zm1.7-2.4c-.5.1-.9.1-1.4.2-.5.1-.6.4-.5.8.1.4.3.6.8.6s.8-.2 1.1-.7c.1-.3.1-.6 0-.9zM-78.4 420.8c-.1-.1-.2-.1-.3-.2-1-.4-1.4-1.1-1.4-2.1 0-.3 0-.7.1-1.1.3-1.1 1.3-1.8 2.5-1.7 1.1.1 1.8.9 1.9 2v1c-.1.9-.5 1.5-1.3 1.9-.1.1-.2.1-.4.2h-1.1zm2.1-2.5c0-.2-.1-.4-.1-.6-.2-.7-.6-1.1-1.3-1.1-.7 0-1.2.4-1.4 1.1-.1.4-.1.8 0 1.2.1.7.6 1.1 1.3 1.1.7 0 1.2-.3 1.4-1.1 0-.2.1-.4.1-.6zM-37.1 420.8c-.1-.1-.2-.1-.3-.2-1-.4-1.4-1.1-1.4-2.1 0-.3 0-.7.1-1.1.3-1.1 1.3-1.8 2.5-1.7 1.1.1 1.8.9 1.9 2v1c-.1.9-.5 1.5-1.3 1.9-.1.1-.2.1-.4.2h-1.1zm2.1-2.5c0-.2 0-.4-.1-.6-.2-.7-.7-1.1-1.4-1.1s-1.2.5-1.3 1.1c-.1.4-.1.8 0 1.2.1.7.7 1.1 1.4 1.1s1.1-.3 1.3-1.1c0-.2 0-.4.1-.6zM-61.8 420.8c-1-.4-1.2-1.1-1.2-2.1v-2.4-.5h.8v3.2c.1.4.2.8.7.8.5.1.9 0 1.2-.4.2-.3.2-.6.3-.9v-2.1-.6h.8c.1.4.1 4.1 0 4.7h-.7c0-.1-.1-.3-.1-.4-.3.2-.6.4-.8.6-.4.1-.7.1-1 .1zM-18.3 420.8c-.2-.1-.4-.2-.6-.4v-.8c.1.1.3.1.4.2.4.2.8.3 1.3.2.3 0 .5-.1.5-.4.1-.3-.1-.5-.3-.6-.2-.1-.4-.2-.5-.3-.3-.1-.5-.2-.8-.4-.9-.5-.9-1.7 0-2.2.7-.4 1.5-.4 2.3-.1v.8l-.9-.3h-.6c-.4.1-.5.2-.5.5s.1.5.4.6c.2.1.4.2.5.2.2.1.5.2.7.3.4.2.7.6.7 1.1 0 .5-.3.9-.8 1.1l-.6.3c-.4.2-.8.2-1.2.2zM-120.4 420.8c-.7-.4-.9-1-.8-1.8v-2.4c-.3 0-.5 0-.7-.1v-.7c.2 0 .5 0 .7-.1v-1.1c.3-.1.5-.2.9-.3v1.3c.4 0 .7 0 1.1.1v.7c-.3 0-.7 0-1.1.1v2.5c0 .8.2.9.9.8h.2c0 .3.1.7-.3.9-.3.1-.6.1-.9.1zM-52.1 420.8c0-.1-.1-.1-.1-.2-.5-.3-.6-.7-.6-1.2v-2.2-.6c-.3 0-.5 0-.8-.1v-.7c.2 0 .5 0 .7-.1v-1.1c.3-.1.5-.2.9-.3v1.3h1.1v.7H-52V418.9c0 .7.2.8.9.7h.2c.1.4.1.7-.2.9-.3.3-.6.3-1 .3zM-197.7 402.4c.3-.2.7-.4 1-.6.9-.6 1.9-1.1 2.9-1.4 1-.3 2.1-.5 3.1-.5.8 0 1.6.2 2.4.4 1.3.3 2.5.8 3.6 1.4l3 1.5c1.5.7 3.1 1.3 4.7 1.6 1.7.3 3.3.4 5 .2 2.8-.3 5.4-1.1 7.8-2.4.2-.1.5-.3.8-.4-.4 1.8-1 3.5-1.9 5.1-.9 1.6-2 3-3.3 4.3-1.3 1.3-2.8 2.3-4.5 3.1-1.7.8-3.4 1.3-5.2 1.5-9.7 1.2-17.7-5.6-19.4-13.8z"/><path class="st0" d="M-160.6 419h-1.7v-.3-19.5c0-.8 0-1.6-.1-2.4-.1-1.1-.3-2.2-.7-3.3-1-3.2-2.7-6-5.2-8.3-1.9-1.7-4-3-6.4-3.8-1-.3-2.1-.6-3.1-.8-1.2-.2-2.3-.2-3.5-.2-1.1 0-2.2.2-3.2.4-2.3.5-4.4 1.4-6.4 2.8-3.1 2.1-5.3 4.9-6.7 8.4-.6 1.4-.9 2.8-1.1 4.3-.1 1-.2 2-.2 2.9 0 1 .1 2 .3 3 .3 1.7.9 3.2 1.6 4.7 1 1.9 2.2 3.6 3.8 5.1 1.6 1.5 3.4 2.7 5.4 3.5 1.2.5 2.5.9 3.9 1.2 1.3.2 2.7.3 4 .3 3.7-.2 7.1-1.4 10.1-3.6.4-.3.8-.7 1.2-1 .1 0 .1-.1.2-.1v2c0 .1 0 .2-.1.2-2.2 1.7-4.6 2.9-7.3 3.5-.9.2-1.7.4-2.6.5-1 .1-2 .2-2.9.1-4.1-.2-7.8-1.4-11-3.8-4-2.9-6.6-6.8-7.7-11.6-.4-1.6-.6-3.3-.5-4.9.1-4.9 1.8-9.2 5-12.9 2.8-3.1 6.2-5.2 10.3-6.2.9-.2 1.8-.4 2.7-.4.8-.1 1.5-.1 2.3-.1.8 0 1.7.1 2.5.2 3.6.5 6.9 1.9 9.7 4.2 3.5 2.8 5.7 6.4 6.8 10.7.3 1.1.5 2.2.5 3.3 0 .6.1 1.1.1 1.7V419zM-32.6 387.8c-.3.2-.4.4-.4.6 0 .5-.1.6-.6.6h-36.9c-.1.3-.2.5-.2.8-.3 1.4-1.4 2.4-2.8 2.6-.4.1-1.1-.3-1.2-.8-.1-.3 0-.6.2-.8.2-.2.5-.3.8-.4.7-.1 1.2-.5 1.3-1.5v-.4V378v-.4c0-.3.1-.4.4-.4h1.1c.3 0 .4.1.4.4V387h34.8c.6 0 1.1-.2 1.5-.4.2-.1.3-.2.4-.4.3-.3.3-.7.1-1l-4.2-6c-.4-.6-.5-1.3-.2-1.9.3-.7.9-1 1.7-1h7.7c1.1 0 2 .9 1.9 2 0 .3-.2.6-.4.9-1.4 2-2.8 4.1-4.2 6.1-.3.4-.3.8-.1 1.2.2.5.6.6 1 .6h4.4c.6 0 1.2 0 1.8-.1.5 0 .9-.1 1.3-.4.3-.2.4-.4.4-.7v-.5-11.2-.4c0-.4.2-.5.6-.6h.9c.3 0 .4.2.5.5v12.1c0 1.2-.5 2.1-1.5 2.7-.6.4-1.3.6-2.1.6H-31c-.4 0-.6 0-.8-.4-.1-.4-.5-.6-.8-.9zm.3-4.1c1.1-1.6 2.2-3.1 3.3-4.7.1-.1.1-.2.2-.3.2-.4.1-.5-.3-.5h-6.5c-.2 0-.5-.1-.6.1-.1.3.1.5.2.7 1 1.5 2.1 3 3.1 4.5.2.1.4.2.6.2zM-90.7 387.8c-.4.3-.8.7-1.2 1-.1.1-.3.2-.5.2h-34c-.7 0-1.4 0-2.1-.1-1.4-.2-2.3-1-2.8-2.4 0 0-.1-.1-.1-.2-1.5 1.7-3.3 2.5-5.5 2.3-1.5-.2-2.7-.8-3.7-1.9-2.2-2.4-2.2-6 0-8.3 1.9-2.1 5.9-3 9.1.2v-1.2-.7c0-.3.2-.4.5-.5h1c.3 0 .4.2.4.4v8.2c0 .2 0 .5.1.7 0 .7.5 1.1 1.1 1.2.7.1 1.4.2 2.1.2h32.4c.6 0 1.1-.1 1.6-.4.5-.3.8-.7.8-1.3V377v-.4c0-.3.2-.5.5-.5h1c.3 0 .4.2.4.4v8.7c0 .4.1.8.3 1.2.1.2.3.4.6.4h5.2c.6 0 1.2-.1 1.8-.2.2 0 .3-.1.5-.2.4-.2.6-.5.6-1v-4-4.8c0-.6.1-.7.7-.7h.7c.3 0 .5.2.5.5v8.9c0 1-.4 1.8-1.1 2.4-.7.6-1.5.9-2.4.9h-6.7c-.3 0-.6 0-.8-.4-.2.2-.6-.1-1-.4zm-40.7-5c.1-2.2-1.8-4.6-4.6-4.6-2.5 0-4.6 2.1-4.6 4.6 0 2.8 2.3 4.6 4.6 4.6 2.5 0 4.7-2.2 4.6-4.6zM-61.8 403.3c.4.1.8.2 1.1.4 1.1.5 1.7 1.3 1.8 2.4.1 1.2-.3 2.3-1.4 3-.8.5-1.7.8-2.6.8-1.9.1-3.8 0-5.7 0 0 0-.1 0-.1-.1v-.5c.4-.1.7-.2 1-.3.5-.1.5-.2.5-.7v-9.5c0-.4-.1-.5-.5-.6-.3-.1-.7-.2-1-.3v-.5h5.2c.6 0 1.3.1 1.9.3 2 .6 2.6 3 1.1 4.5-.3.3-.6.5-1 .7 0 .3-.1.3-.3.4zm-3.5 5.8h2.4c.3 0 .6-.1.9-.2.7-.2 1.1-.7 1.2-1.4.1-.5.1-1.1 0-1.6-.1-.8-.6-1.4-1.4-1.6-1-.3-2.1-.3-3.1-.3v5.1zm0-10.8v4.8c.9 0 1.8 0 2.7-.3.6-.2 1-.7 1.1-1.3v-1.3c-.2-1-.7-1.5-1.7-1.7-.7-.1-1.4-.1-2.1-.2zM-105.3 409.4v.5h-2.5c-.5 0-.8-.4-1.1-.8-.7-1-1.4-1.9-2.1-2.9-.4-.5-.7-1-1.1-1.5-.2-.2-.3-.3-.6-.4-.3 0-.6-.1-1-.2v4.2c0 .6.1.6.6.7.3.1.7.1 1 .2l.1.1v.5h-5v-.5c.1 0 .1-.1.1-.1.3-.1.7-.2 1-.2.3-.1.4-.2.4-.5v-.4-8.9-.3c0-.4-.1-.5-.5-.6-.3-.1-.7-.2-1-.3v-.6h5.1c.6 0 1.2.1 1.8.3 2.9.7 2.7 3.8 1.4 5.2-.4.4-.9.7-1.4 1-.1.1-.3.1-.4.2.2.2.3.4.4.6.8 1.1 1.7 2.2 2.5 3.4.5.7 1.1 1.1 1.9 1.2h.2c.1 0 .1 0 .2.1zm-8.3-11.1c-.1.8-.1 4.8 0 5.2h1.7c1-.1 1.8-.7 2.1-1.7.1-.4.1-.9.1-1.4-.1-1-.7-1.8-1.7-1.9-.8-.1-1.5-.1-2.2-.2zM-81.3 409.4v.5h-4.5v-.5c.5-.1 1-.2 1.5-.4-.5-1.2-.9-2.4-1.4-3.6H-90c-.4 1.2-.9 2.3-1.3 3.5.5.1 1 .3 1.4.4v.5h-3.6v-.5c.2-.1.3-.1.5-.2.4-.1.7-.4.8-.8.6-1.5 1.2-3.1 1.8-4.6.5-1.3.9-2.5 1.5-3.8.3-.8.7-1.6 1.1-2.4.2-.4.2-.4.7-.3.1.3.3.7.4 1 1.3 3.3 2.5 6.5 3.8 9.8.2.6.5 1 1.2 1.1.2.2.3.2.4.3zm-6.4-9.4h-.1c-.5 1.5-1.1 2.9-1.7 4.4h3.5c-.6-1.5-1.2-2.9-1.7-4.4zM-26.8 409.4c.2-.1.3-.2.5-.2.5-.1.7-.4.9-.8 1-2.6 2-5.1 3-7.7.4-1.1 1-2.2 1.6-3.3h.5c.1.1.1.2.2.3.5 1.4 1.1 2.7 1.6 4.1.8 2.2 1.7 4.3 2.5 6.5.2.6.5.9 1.1 1.1.1 0 .1 0 .2.1v.5h-4.4v-.5c.5-.1.9-.2 1.5-.3-.5-1.2-.9-2.4-1.4-3.6h-4.3c-.4 1.2-.8 2.3-1.3 3.5.5.1.9.2 1.4.4v.6h-3.6v-.7zm5.6-9.5c-.6 1.6-1.1 3.1-1.7 4.6h3.5c-.6-1.6-1.2-3.1-1.8-4.6zM-44.6 397.5h4.9v.5c-.4.1-.7.2-1 .3-.4.1-.5.2-.5.6v9.4c0 .6 0 .7.6.8.2 0 .4.1.6.1.4.1.4.1.3.6h-4.8c-.1-.5-.1-.5.3-.6.2-.1.5-.1.7-.2.4-.1.4-.2.5-.6v-.3-8.9-.4c0-.4-.1-.5-.4-.6-.3-.1-.7-.2-1.1-.3-.1 0-.1-.2-.1-.4zM-95 390.5c.5-.9 1.1-1.3 1.9-1.1.7.2 1.2.7 1.2 1.4s-.4 1.3-1.1 1.5c-.8.3-1.3 0-2-1-.5.9-1.2 1.2-1.9 1-.7-.2-1.2-.8-1.1-1.5 0-.7.5-1.3 1.2-1.5.7 0 1.3.3 1.8 1.2z"/><path class="st0" d="M-135.8 374c.6-.9 1.2-1.3 1.9-1.1.7.2 1.2.8 1.2 1.5s-.4 1.3-1.1 1.5c-.8.2-1.4 0-2-1.1-.2.5-.5.9-1 1-.3.1-.6.1-.9 0-.7-.2-1.2-.8-1.1-1.6 0-.7.5-1.3 1.2-1.4.8 0 1.4.4 1.8 1.2zM-139.4 417.4c-.3 1.1-.7 2.2-1 3.3h-.8c-.5-1.6-.9-3.1-1.4-4.7h.9c.3 1.1.6 2.3.9 3.4h.1c.3-1.1.7-2.3 1-3.4h.8l.9 3.3h.1l.9-3.3h.9c-.5 1.6-.9 3.1-1.4 4.7h-.9c-.3-1.1-.6-2.2-1-3.3zM-24.6 420.7h-.8v-.4-2.1c0-.2 0-.5-.1-.7-.1-.4-.3-.7-.7-.8-.4-.1-.7 0-1 .3-.3.3-.4.7-.4 1.1v2.7h-.7c-.1-.4-.1-4.1 0-4.7h.6c.1.2.1.3.2.5 0 0 .1 0 .1-.1.3-.3.6-.4 1-.5 1-.1 1.7.4 1.8 1.4.1 1 0 2.1 0 3.3zM-83.9 392.5c-.8 0-1.5-.7-1.5-1.5s.7-1.5 1.5-1.6c.9 0 1.6.7 1.6 1.6 0 .8-.7 1.5-1.6 1.5zM-69.7 413.7h.7c.1.4.1 6.3 0 6.9h-.7c-.1-.3-.1-6.2 0-6.9zM-104.2 420.7V416h.8c0 .2 0 .3.1.5.1 0 .1-.1.2-.1.4-.4.8-.6 1.4-.4v.8h-.1c-.8-.2-1.2.1-1.4.8-.1.2-.1.5-.1.7v2.4h-.9zM-45.3 416h.8v4.7h-.8V416zM-44.3 414.4c0 .3-.2.5-.5.5s-.5-.2-.5-.5.3-.5.6-.5c.1-.1.4.1.4.5z"/></svg>